<?xml version="1.0" ?><!DOCTYPE svg  PUBLIC '-//W3C//DTD SVG 1.1//EN'  'http://www.w3.org/Graphics/SVG/1.1/DTD/svg11.dtd'><svg height="512px" style="enable-background:new 0 0 512 512;" version="1.1" viewBox="0 0 512 512" width="512px" xml:space="preserve" xmlns="http://www.w3.org/2000/svg" xmlns:xlink="http://www.w3.org/1999/xlink"><g id="_x36_87_x2C__Finance_x2C__financial_x2C__insurance_x2C__money_x2C__protection"><g><path d="M291.895,176.791c-1.916-17.818-4.772-34.239-8.454-48.713l-1.154-0.029    c-8.359,0-14.14,1.52-19.583,2.948c-8.907,2.372-17.024,4.501-33.537,0.518c-11.192-2.737-17.06-3.71-23.233-3.374    c-3.646,14.443-6.535,30.861-8.423,48.65c7.907-0.336,15.631,0.974,30.013,4.5c18.274,4.47,27.304,2.067,37.25-0.578    c7.146-1.915,14.747-3.952,26.209-3.922h0.123H291.895z M300.167,184.758c1.063,12.314,1.67,25.206,1.762,38.463h75.139    c-0.245-12.859-1.766-25.357-4.38-37.277c-4.408-0.152-9.76,0.365-18.488,2.22c-19.309,4.134-29.22,1.794-39.924-0.7    C309.959,186.43,305.487,185.366,300.167,184.758z M291.288,128.686c3.526,14.535,6.324,30.895,8.148,48.5    c6.447,0.609,11.585,1.824,16.541,3.011c9.851,2.312,18.976,4.47,36.702,0.669c8.209-1.734,13.684-2.402,18.183-2.432    c-4.745-17.88-12.009-34.422-21.345-48.957c-3.682-0.212-8.09,0.121-15.659,1.734h-0.091c-15.842,3.375-23.963,1.49-32.72-0.579    C298.009,129.934,294.875,129.203,291.288,128.686z M263.861,69.058c8.605,8.575,16.175,22.837,22.226,41.293    c1.095,3.376,2.158,6.933,3.193,10.612c5.229,0.486,9.427,1.461,13.47,2.402c7.907,1.855,15.234,3.589,29.466,0.548h0.151    c5.109-1.095,8.938-1.643,12.104-1.854c-2.039-2.829-4.166-5.564-6.387-8.18C318.441,90.283,292.625,74.105,263.861,69.058z     M200.038,121.236c1.032-3.801,2.126-7.418,3.281-10.916c6.022-18.426,13.624-32.688,22.229-41.263    c-28.795,5.019-54.58,21.226-74.254,44.79c-2.007,2.432-3.983,4.926-5.84,7.51c4.015,0.365,7.602,1.217,11.251,2.038    c5.079,1.187,10.279,2.372,16.695,2.159c1.762-0.061,3.436-0.182,5.106-0.396c1.674-0.212,3.376-0.516,5.141-0.818l4.166-0.854    C192.77,122.482,196.63,121.723,200.038,121.236z M189.909,177.521c1.825-17.575,4.594-33.903,8.089-48.408    c-2.523,0.427-5.32,1.004-8.697,1.673c-0.821,0.212-3.618,0.851-4.257,0.851c-1.885,0.364-3.741,0.67-5.594,0.912    c-1.884,0.212-3.801,0.396-5.808,0.456c-7.419,0.244-13.076-1.063-18.579-2.34c-4.622-1.066-9.181-2.1-14.625-2.038    c-9.426,14.474-16.817,30.954-21.65,48.833c6.416,0.215,11.858,1.49,17.393,2.768c6.292,1.46,12.74,2.949,20.766,2.705    c2.19-0.091,4.289-0.273,6.356-0.547c2.099-0.242,4.229-0.607,6.447-1.033l4.713-0.943    C180.756,179.131,185.624,178.159,189.909,177.521z M187.449,223.221c0.091-13.104,0.699-25.846,1.73-38.037    c-3.738,0.607-7.967,1.458-13.255,2.523l-4.836,0.973c-2.31,0.426-4.559,0.82-6.84,1.094c-2.281,0.306-4.622,0.518-7.085,0.578    c-9.002,0.305-15.902-1.308-22.623-2.857c-5.594-1.309-11.101-2.584-17.607-2.584c-2.766,12.253-4.348,25.086-4.59,38.311H187.449    z M380.503,186.824c2.433,11.707,3.801,23.87,4.043,36.396h57.531c-0.396-13.166-2.737-25.937-6.844-38.16    c-3.467,0.488-6.84,1.096-10.125,1.672c-8.454,1.49-16.603,2.92-26.304,2.373c-7.692-0.457-12.648-1.307-16.846-2.037    L380.503,186.824z M359.096,130.846c8.573,14.504,15.262,30.742,19.61,48.135c1.46,0.213,2.952,0.486,4.503,0.73    c4.043,0.697,8.816,1.52,16.024,1.945c8.788,0.516,16.54-0.883,24.598-2.281c2.86-0.518,5.777-1.033,8.788-1.459    c-7.205-18.032-18.274-34.664-32.414-49.26c-3.039,0.365-5.99,0.912-8.879,1.398c-6.902,1.216-13.561,2.372-21.499,1.916    C365.3,131.727,361.924,131.303,359.096,130.846z M300.925,73.953c16.116,8.455,30.652,20.465,42.907,35.151    c3.496,4.228,6.84,8.667,9.971,13.319c1.127,0.182,2.253,0.364,3.499,0.576c3.253,0.548,7.114,1.217,12.922,1.552    c7.054,0.395,13.319-0.7,19.825-1.854l3.467-0.578c-2.859-2.676-5.84-5.26-8.91-7.754    C361.618,95.725,332.974,81.646,300.925,73.953z M136.301,121.39c2.92-4.288,6.022-8.394,9.276-12.285    c12.255-14.687,26.788-26.696,42.904-35.151c-34.239,8.211-67.776,25.086-93.592,49.139c14.715,2.584,17.33,2.158,31.652-0.213    c2.158-0.273,4.439-0.791,6.661-1.095C134.266,121.602,135.301,121.48,136.301,121.39z M111.005,177.765    c4.5-17.425,11.28-33.601,19.976-48.075c-1.095,0.152-2.19,0.306-3.222,0.547c-17.028,2.83-18.611,3.071-39.376-0.76    c-13.897,14.383-25.058,31.016-32.231,49.654c21.829,4.016,24.233,3.619,43.178,0.457l8.058-1.338    C108.633,178.037,109.851,177.886,111.005,177.765z M104.863,223.221c0.242-12.982,1.73-25.602,4.317-37.703l-0.579,0.061    l-8.058,1.338c-20.432,3.436-22.682,3.832-46.918-0.669c-3.709,11.616-5.927,23.961-6.292,36.974H104.863z M246.103,322.896    c0.972-0.213,1.762-0.669,2.373-1.369c0.607-0.698,0.913-1.551,0.913-2.523c0-0.851-0.246-1.58-0.762-2.219    c-0.516-0.609-1.337-1.096-2.523-1.43V322.896z M243.306,302.402c-0.762,0.242-1.337,0.699-1.765,1.308    c-0.457,0.639-0.667,1.308-0.667,2.037c0,0.698,0.183,1.308,0.607,1.915c0.396,0.578,1.003,1.035,1.825,1.4V302.402z     M140.376,290.512c0,1.399,0.913,2.889,2.099,3.346c2.495,1.247,5.384-0.639,5.384-3.346v-7.48c0-1.428-0.913-2.888-2.099-3.373    c-2.492-1.217-5.384,0.668-5.384,3.373V290.512z M140.376,320.373c0,1.428,0.913,2.889,2.099,3.375    c2.495,1.247,5.384-0.67,5.384-3.375v-7.451c0-1.428-0.913-2.888-2.099-3.374c-2.492-1.247-5.384,0.669-5.384,3.374V320.373z     M147.858,253.143c0-1.399-0.913-2.89-2.099-3.346c-2.492-1.246-5.384,0.639-5.384,3.346v7.479c0,1.398,0.913,2.89,2.099,3.347    c2.495,1.246,5.384-0.639,5.384-3.347V253.143z M102.824,337.887c0,1.398,0.913,2.889,2.099,3.345    c2.492,1.246,5.384-0.639,5.384-3.345v-7.48c0-1.398-0.944-2.888-2.099-3.344c-2.495-1.248-5.384,0.639-5.384,3.344V337.887z     M102.824,367.777c0,1.398,0.913,2.889,2.099,3.345c2.492,1.246,5.384-0.639,5.384-3.345v-7.48c0-1.398-0.944-2.889-2.099-3.344    c-2.495-1.248-5.384,0.639-5.384,3.344V367.777z M102.824,397.666c0,1.4,0.913,2.891,2.099,3.347    c2.492,1.246,5.384-0.639,5.384-3.347v-7.479c0-1.43-0.944-2.891-2.099-3.376c-2.495-1.216-5.384,0.669-5.384,3.376V397.666z     M102.824,420.655c0,1.398,0.913,2.889,2.099,3.345c2.492,1.246,5.384-0.639,5.384-3.345v-0.577c0-1.431-0.944-2.891-2.099-3.376    c-2.495-1.246-5.384,0.668-5.384,3.376V420.655z M110.307,300.516c0-1.398-0.944-2.888-2.099-3.344    c-2.495-1.246-5.384,0.639-5.384,3.344v7.48c0,1.43,0.913,2.889,2.099,3.375c2.492,1.218,5.384-0.668,5.384-3.375V300.516z     M307.221,309.184c0,1.428,0.913,2.888,2.1,3.373c2.491,1.248,5.38-0.668,5.38-3.373v-7.451c0-1.429-0.913-2.889-2.099-3.375    c-2.492-1.247-5.381,0.669-5.381,3.375V309.184z M307.221,339.073c0,1.429,0.913,2.889,2.1,3.374    c2.491,1.217,5.38-0.668,5.38-3.374v-7.48c0-1.398-0.913-2.888-2.099-3.345c-2.492-1.248-5.381,0.639-5.381,3.345V339.073z     M314.7,271.844c0-1.43-0.913-2.891-2.099-3.377c-2.492-1.245-5.381,0.67-5.381,3.377v7.449c0,1.428,0.913,2.888,2.1,3.374    c2.491,1.247,5.38-0.669,5.38-3.374V271.844z M361.285,319.187c0,1.429,0.912,2.889,2.099,3.374    c2.491,1.248,5.38-0.668,5.38-3.374v-7.45c0-1.429-0.912-2.889-2.099-3.375c-2.491-1.246-5.38,0.669-5.38,3.375V319.187z     M361.285,349.077c0,1.429,0.912,2.888,2.099,3.374c2.491,1.248,5.38-0.668,5.38-3.374v-7.45c0-1.429-0.912-2.889-2.099-3.375    c-2.491-1.248-5.38,0.669-5.38,3.375V349.077z M361.285,378.968c0,1.429,0.912,2.888,2.099,3.374    c2.491,1.217,5.38-0.668,5.38-3.374v-7.48c0-1.399-0.912-2.889-2.099-3.345c-2.491-1.248-5.38,0.639-5.38,3.345V378.968z     M368.764,281.848c0-1.398-0.912-2.891-2.099-3.347c-2.491-1.245-5.38,0.639-5.38,3.347v7.479c0,1.4,0.912,2.858,2.099,3.346    c2.491,1.246,5.38-0.639,5.38-3.346V281.848z M51.649,485.999c-2.036,0-3.709-1.673-3.709-3.74c0-2.066,1.674-3.739,3.709-3.739    h284.458c2.067,0,3.742,1.673,3.742,3.739c0,2.067-1.675,3.74-3.742,3.74H51.649z M218.22,463.073    c-2.067,0-3.741-1.673-3.741-3.71c0-2.068,1.674-3.741,3.741-3.741h196.824c2.066,0,3.741,1.673,3.741,3.741    c0,2.037-1.675,3.71-3.741,3.71H218.22z M435.202,463.073c-2.067,0-3.737-1.673-3.737-3.71c0-2.068,1.67-3.741,3.737-3.741h24.602    c2.067,0,3.741,1.673,3.741,3.741c0,2.037-1.674,3.71-3.741,3.71H435.202z M65.15,463.771c-2.067,0-3.738-1.673-3.738-3.739    c0-2.038,1.671-3.74,3.738-3.74h93.258c2.067,0,3.741,1.702,3.741,3.74c0,2.066-1.674,3.739-3.741,3.739H65.15z M59.131,326.149    c0,1.431,0.913,2.889,2.099,3.376c2.492,1.246,5.38-0.67,5.38-3.376v-7.48c0-1.398-0.944-2.888-2.127-3.345    c-2.495-1.246-5.352,0.639-5.352,3.345V326.149z M59.131,356.04c0,1.398,0.913,2.888,2.099,3.345    c2.492,1.246,5.38-0.639,5.38-3.345v-7.48c0-1.398-0.944-2.888-2.127-3.345c-2.495-1.246-5.352,0.639-5.352,3.345V356.04z     M66.61,288.811c0-1.43-0.944-2.889-2.127-3.377c-2.495-1.245-5.352,0.671-5.352,3.377v7.449c0,1.43,0.913,2.888,2.099,3.375    c2.492,1.246,5.38-0.668,5.38-3.375V288.811z M240.965,67.873V29.742c0-2.066,1.67-3.74,3.738-3.74    c2.067,0,3.741,1.674,3.741,3.74v38.131c11.553,2.979,22.257,19.521,30.561,44.759c0.817,2.585,1.639,5.23,2.432,7.996    c-8.91,0.091-14.93,1.675-20.618,3.164c-7.966,2.097-15.263,4.043-29.918,0.485c-10.795-2.646-16.968-3.74-22.927-3.709    c0.79-2.737,1.579-5.382,2.432-7.937C218.676,87.395,229.409,70.853,240.965,67.873z M240.965,288.201v-64.98h-46.038    c0.091-13.439,0.73-26.452,1.856-38.891c7.721-0.424,14.989,0.762,28.975,4.198c20.13,4.925,30.045,2.279,40.899-0.609    c6.749-1.793,13.895-3.71,24.324-3.71l1.643,0.03c1.095,12.468,1.733,25.513,1.825,38.981h-46.006v64.98    c5.566,0.821,10.549,3.436,14.35,7.236c4.622,4.623,7.514,11.039,7.514,18.094c0,7.084-2.892,13.469-7.514,18.123    c-3.801,3.77-8.784,6.384-14.35,7.205v72.979c0,8.817-3.618,16.875-9.458,22.713c-5.868,5.838-13.894,9.486-22.741,9.486    c-8.729,0-16.695-3.557-22.535-9.273l-0.21-0.183c-5.84-5.838-9.458-13.896-9.458-22.743v-12.742c0-2.066,1.674-3.738,3.741-3.738    c2.067,0,3.741,1.672,3.741,3.738v12.742c0,6.78,2.797,12.951,7.265,17.452l0.183,0.183c4.439,4.378,10.553,7.086,17.274,7.086    c6.808,0,12.981-2.799,17.453-7.269c4.499-4.469,7.268-10.643,7.268-17.452v-72.979c-5.566-0.821-10.553-3.436-14.354-7.236    l-0.214-0.151c-4.499-4.622-7.296-10.948-7.296-17.94c0-7.055,2.857-13.471,7.51-18.094    C230.412,291.637,235.399,289.022,240.965,288.201z M302.083,262.355v-20.616h162.585v20.616H302.083z M243.306,322.593v-8.058    c-2.495-0.73-4.32-1.795-5.503-3.254c-1.158-1.459-1.734-3.223-1.734-5.292c0-2.128,0.639-3.892,1.976-5.32    c1.306-1.431,3.071-2.249,5.261-2.464v-1.885h2.797v1.885c2.067,0.244,3.71,0.942,4.924,2.099    c1.187,1.155,1.979,2.677,2.313,4.622l-4.896,0.607c-0.305-1.49-1.063-2.523-2.341-3.07v7.51c3.103,0.821,5.229,1.916,6.356,3.255    c1.095,1.308,1.67,3.01,1.67,5.108c0,2.311-0.698,4.257-2.126,5.867c-1.4,1.582-3.376,2.556-5.9,2.95v3.618h-2.797v-3.557    c-2.19-0.273-3.983-1.096-5.384-2.464c-1.396-1.368-2.281-3.314-2.646-5.838l4.987-0.577c0.214,1.004,0.611,1.914,1.158,2.645    C241.997,321.71,242.636,322.258,243.306,322.593z" style="fill-rule:evenodd;clip-rule:evenodd;"/></g></g><g id="Layer_1"/></svg>