<?xml version="1.0" ?><!DOCTYPE svg  PUBLIC '-//W3C//DTD SVG 1.1//EN'  'http://www.w3.org/Graphics/SVG/1.1/DTD/svg11.dtd'><svg height="512px" style="enable-background:new 0 0 512 512;" version="1.1" viewBox="0 0 512 512" width="512px" xml:space="preserve" xmlns="http://www.w3.org/2000/svg" xmlns:xlink="http://www.w3.org/1999/xlink"><g id="_x35_80_x2C__Car_x2C__formula_x2C__game_x2C__racing_x2C__speed"><g><path d="M307.777,100.621h-10.165v26.715h10.165V100.621z M213.793,127.336v-26.715    h-10.144v26.715H213.793z M313.17,144.808h28.76V83.149h-28.76C313.17,103.701,313.17,124.255,313.17,144.808z M359.711,306.744    h-27.023v62.451h27.023V306.744z M327.187,324.612H317.02v26.714h10.167V324.612z M179.312,306.744h-27.023v62.451h27.023V306.744    z M194.979,351.326v-26.714h-10.144v26.714H194.979z M277.917,380.968h-44.406v10.167h44.406V380.968z M198.235,83.149h-28.76    v61.658h28.76C198.235,124.255,198.235,103.701,198.235,83.149z M272.547,181.953h-33.689l-23.854,44.385v62.119h22.247    c1.497,0,2.708,1.211,2.708,2.707v43.725h31.489v-43.725c0-1.496,1.21-2.707,2.707-2.707h22.247v-62.119L272.547,181.953z     M306.238,410.543h-101.07v8.582h101.07V410.543z M202.461,405.13h106.483c1.497,0,2.706,1.21,2.706,2.707v11.288h32.985v-22.577    H166.79v22.577h32.965v-11.288C199.755,406.34,200.964,405.13,202.461,405.13z M268.741,228.846    c-3.323-3.322-7.944-5.391-13.027-5.391c-5.083,0-9.704,2.068-13.027,5.391c-3.344,3.345-5.413,7.944-5.413,13.05    c0,5.083,2.069,9.682,5.413,13.026c3.324,3.323,7.944,5.391,13.027,5.391c5.083,0,9.704-2.045,13.027-5.391    c3.345-3.322,5.391-7.943,5.391-13.026S272.063,232.19,268.741,228.846z M255.714,218.041c6.558,0,12.521,2.686,16.833,6.998    c4.336,4.313,6.998,10.254,6.998,16.856c0,6.558-2.662,12.521-6.975,16.833c-4.336,4.335-10.299,6.998-16.856,6.998    c-6.58,0-12.543-2.663-16.856-6.977c-4.313-4.312-6.998-10.275-6.998-16.854c0-6.581,2.685-12.565,6.998-16.856    C243.171,220.727,249.134,218.041,255.714,218.041z M209.613,226.623l-26.011-32.148l-13.929,88.195l28.606,9.507    c1.211,0.286,2.113,1.364,2.113,2.642c0,26.912,0,53.824,0,80.736c36.881,0,73.762,0,110.622,0v-80.736    c0.021-1.123,0.747-2.18,1.87-2.554l28.849-9.595l-13.469-85.357l-26.449,31.665v62.187c0,1.497-1.211,2.707-2.707,2.707H276.86    v43.725c0,1.496-1.211,2.707-2.706,2.707H237.25c-1.495,0-2.706-1.211-2.706-2.707v-43.725h-22.247    c-1.476,0-2.685-1.21-2.685-2.707V226.623z M185.87,188.708l25.988,32.128l23.017-42.866c0.484-0.901,1.43-1.408,2.376-1.408    l36.904-0.022c1.101,0,2.046,0.66,2.464,1.607l23.743,44.143l26.781-32.063l-0.088-0.55l-33.514-21.896    c-0.814-0.462-1.343-1.342-1.343-2.332V55.951h-34.042c0.198,15.668,1.057,94.072-0.154,97.703    c-0.484,1.408-2.002,2.156-3.411,1.694c-1.407-0.484-2.178-2.003-1.693-3.411c0.923-2.816,0.065-80.495-0.11-95.986h-33.581    v41.897v0.065c0,22.512,0,45.023,0,67.557c0,0.88-0.439,1.738-1.232,2.244L185.87,188.708z M195.97,434.484    c0-2.992,2.419-5.413,5.413-5.413c2.971,0,5.391,2.421,5.391,5.413v22.335c0,2.993-2.42,5.414-5.391,5.414    c-2.994,0-5.413-2.421-5.413-5.414V434.484z M222.398,447.71c0-2.993,2.419-5.413,5.413-5.413c2.992,0,5.414,2.42,5.414,5.413    v22.335c0,2.993-2.421,5.414-5.414,5.414c-2.994,0-5.413-2.421-5.413-5.414V447.71z M247.946,434.484    c0-2.992,2.421-5.413,5.391-5.413c2.994,0,5.413,2.421,5.413,5.413v22.335c0,2.993-2.419,5.414-5.413,5.414    c-2.969,0-5.391-2.421-5.391-5.414V434.484z M268.213,449.426c0-3.938,2.42-7.129,5.413-7.129c2.992,0,5.414,3.19,5.414,7.129    v29.443c0,3.939-2.422,7.13-5.414,7.13c-2.993,0-5.413-3.19-5.413-7.13V449.426z M216.5,50.537c31.644,0,63.264,0,94.886,0    l-0.639-8.186l-55.783-16.35l-55.452,16.262l0.66,8.273h16.261H216.5z" style="fill-rule:evenodd;clip-rule:evenodd;"/></g></g><g id="Layer_1"/></svg>