<?xml version="1.0" ?><!DOCTYPE svg  PUBLIC '-//W3C//DTD SVG 1.1//EN'  'http://www.w3.org/Graphics/SVG/1.1/DTD/svg11.dtd'><svg height="512px" style="enable-background:new 0 0 512 512;" version="1.1" viewBox="0 0 512 512" width="512px" xml:space="preserve" xmlns="http://www.w3.org/2000/svg" xmlns:xlink="http://www.w3.org/1999/xlink"><g id="_x31_99_x2C__robot_x2C__Android_x2C__artificial_x2C__bot_x2C__technology"><g><path d="M337.672,164.916v41.686h22.241h0.071h21.104h0.071    c0.31,0,0.593-0.143,0.808-0.356l0.095-0.071c0.167-0.214,0.261-0.498,0.261-0.783v-39.24c0-0.355-0.142-0.664-0.355-0.877    c-0.215-0.215-0.523-0.357-0.879-0.357H337.672z M171.433,206.602v-41.686h-44.651v41.686h20.129h0.072h0.048H171.433z     M225.864,341.054h-26.917v84.911h26.917V341.054z M310.158,341.054h-26.942v84.911h26.942V341.054z M313.148,431.805h-0.07    h-32.782h-0.071h-1.852v23.524h56.899v-23.524H313.148z M177.273,246.576c0,0.166,0.07,0.309,0.165,0.403    c0.12,0.095,0.262,0.166,0.428,0.166h153.372c0.165,0,0.309-0.071,0.427-0.166c0.095-0.095,0.167-0.237,0.167-0.403v-36.961    v-44.699h-49.709h-0.07h-55.001h-0.072h-49.707v42.444V246.576z M331.832,252.961l-0.594,0.024H177.866l-0.593-0.024v78.787    c0,0.949,0.404,1.828,1.02,2.445c0.618,0.641,1.497,1.021,2.446,1.021h16.474h0.047h0.072h30.171h0.047h0.047h53.909h0.048h0.047    h30.172h0.047h0.07h16.475c0.95,0,1.827-0.381,2.445-0.998c0.617-0.641,1.021-1.495,1.021-2.469V252.961z M291.238,211.942    h-73.374c-4.582,0-8.758-1.876-11.773-4.89c-3.039-3.039-4.915-7.217-4.915-11.799v-1.211c0-4.914,2.018-9.4,5.247-12.629    c3.229-3.252,7.714-5.27,12.652-5.27h70.954c4.938,0,9.425,2.018,12.653,5.27c3.227,3.229,5.245,7.715,5.245,12.629v1.211    c0,4.51-1.805,8.617-4.747,11.632l-0.142,0.167C299.998,210.066,295.82,211.942,291.238,211.942z M217.864,206.126h73.374    c2.968,0,5.698-1.234,7.669-3.204l0.142-0.143c1.876-1.947,3.038-4.605,3.038-7.525v-1.211c0-3.299-1.354-6.314-3.536-8.498    c-2.185-2.184-5.199-3.561-8.522-3.561h-70.954c-3.323,0-6.338,1.377-8.521,3.561c-2.185,2.184-3.538,5.199-3.538,8.498v1.211    c0,2.967,1.211,5.697,3.182,7.668C212.168,204.892,214.897,206.126,217.864,206.126z M229.972,159.077h49.161v-20.201h-49.161    V159.077z M307.57,113.168V88.527v-0.07V74.095c0-2.374-0.973-4.558-2.539-6.124c-1.567-1.566-3.752-2.541-6.124-2.541h-88.709    c-2.375,0-4.535,0.975-6.102,2.541c-1.59,1.566-2.563,3.75-2.563,6.124v39.073H307.57z M226.98,133.036h0.072h55.001h0.07h16.784    c2.372,0,4.557-0.973,6.124-2.54c1.566-1.566,2.539-3.727,2.539-6.1v-5.39H201.533v5.39c0,2.373,0.974,4.533,2.563,6.1    c1.567,1.567,3.727,2.54,6.102,2.54H226.98z M233.508,82.45c-1.258-1.233-2.99-2.018-4.914-2.018s-3.655,0.784-4.913,2.018    c-1.258,1.259-2.018,2.991-2.018,4.915c0,1.922,0.76,3.654,2.018,4.889c1.258,1.259,2.99,2.042,4.913,2.042    c1.899,0,3.655-0.783,4.891-2.042c1.258-1.234,2.041-2.967,2.041-4.889C235.525,85.441,234.743,83.709,233.508,82.45z     M228.594,74.594c3.513,0,6.694,1.424,9.021,3.75l0.022,0.023c2.302,2.303,3.727,5.484,3.727,8.998c0,3.512-1.447,6.717-3.75,9.02    c-2.304,2.326-5.508,3.751-9.021,3.751c-3.513,0-6.694-1.425-9.021-3.751l-0.023-0.023c-2.302-2.303-3.727-5.484-3.727-8.996    c0-3.514,1.425-6.695,3.75-9.021l0.024-0.023C221.9,76.018,225.082,74.594,228.594,74.594z M285.424,82.45    c-1.259-1.233-2.992-2.018-4.914-2.018c-1.853,0-3.537,0.712-4.772,1.899l-0.117,0.143c-1.259,1.234-2.043,2.99-2.043,4.891    c0,1.922,0.784,3.654,2.018,4.889c1.259,1.259,2.992,2.042,4.915,2.042c1.922,0,3.655-0.783,4.914-2.042    c1.258-1.234,2.018-2.967,2.018-4.889C287.441,85.441,286.682,83.709,285.424,82.45z M280.51,74.594    c3.514,0,6.718,1.424,9.02,3.75l0.024,0.023c2.303,2.303,3.728,5.484,3.728,8.998c0,3.512-1.425,6.717-3.752,9.02    c-2.302,2.326-5.506,3.751-9.02,3.751c-3.515,0-6.694-1.425-9.021-3.751l-0.024-0.023c-2.303-2.303-3.726-5.484-3.726-8.996    c0-3.514,1.447-6.719,3.75-9.021l0.214-0.213C274.005,75.946,277.114,74.594,280.51,74.594z M381.182,212.44h-0.094h-18.184    v86.692h19.418V212.44H381.182z M146.2,212.44h-19.418v86.692H146.2V212.44z M341.112,431.805v23.524h7.146v-23.524H341.112z     M176.536,431.805v23.524h56.901v-23.524h-4.559h-0.095h-32.757h-0.072H176.536z M170.696,455.329v-23.524h-7.121v23.524H170.696z     M306.217,230.695c-0.64-0.617-1.518-1.021-2.491-1.021s-1.852,0.404-2.469,1.021c-0.641,0.641-1.044,1.52-1.044,2.492    s0.403,1.852,1.044,2.492c0.617,0.617,1.495,1.021,2.469,1.021s1.852-0.404,2.491-1.021c0.618-0.641,1.021-1.52,1.021-2.492    S306.859,231.336,306.217,230.695z M303.726,223.859c2.563,0,4.913,1.044,6.6,2.729c1.71,1.709,2.753,4.035,2.753,6.599    c0,2.588-1.043,4.938-2.73,6.623c-1.709,1.686-4.036,2.73-6.622,2.73c-2.563,0-4.913-1.045-6.6-2.73    c-1.685-1.686-2.753-4.035-2.753-6.623c0-2.563,1.068-4.89,2.753-6.599C298.835,224.903,301.162,223.859,303.726,223.859z     M273.435,230.719c-0.64-0.641-1.52-1.045-2.491-1.045c-0.974,0-1.852,0.404-2.493,1.021c-0.616,0.641-1.02,1.52-1.02,2.492    s0.403,1.852,1.02,2.492c0.642,0.641,1.52,1.021,2.493,1.021c0.972,0,1.852-0.381,2.491-1.021c0.618-0.641,1.021-1.52,1.021-2.492    S274.053,231.336,273.435,230.719z M270.943,223.859c2.563,0,4.913,1.044,6.6,2.729c1.709,1.709,2.753,4.035,2.753,6.599    c0,2.564-1.044,4.914-2.753,6.6c-1.687,1.709-4.036,2.754-6.6,2.754s-4.913-1.045-6.6-2.73c-1.709-1.709-2.753-4.059-2.753-6.623    c0-2.563,1.044-4.89,2.753-6.599C266.03,224.903,268.38,223.859,270.943,223.859z M240.653,230.695    c-0.64-0.617-1.52-1.021-2.492-1.021c-0.974,0-1.851,0.404-2.493,1.021c-0.616,0.641-1.02,1.52-1.02,2.492s0.403,1.852,1.02,2.492    c0.642,0.617,1.52,1.021,2.493,1.021c0.972,0,1.852-0.404,2.469-1.021c0.64-0.641,1.044-1.52,1.044-2.492    S241.271,231.336,240.653,230.695z M238.161,223.859c2.564,0,4.891,1.044,6.6,2.729c1.685,1.709,2.753,4.035,2.753,6.599    c0,2.588-1.069,4.938-2.753,6.623c-1.686,1.686-4.036,2.73-6.6,2.73c-2.588,0-4.915-1.045-6.624-2.73    c-1.685-1.686-2.729-4.035-2.729-6.623c0-2.563,1.044-4.89,2.729-6.599C233.246,224.903,235.598,223.859,238.161,223.859z     M207.871,230.719c-0.64-0.641-1.52-1.045-2.492-1.045c-0.974,0-1.851,0.404-2.494,1.021c-0.64,0.641-1.019,1.52-1.019,2.492    s0.379,1.852,1.019,2.492c0.643,0.641,1.52,1.021,2.494,1.021c0.972,0,1.852-0.381,2.469-1.021c0.64-0.641,1.044-1.52,1.044-2.492    S208.488,231.336,207.871,230.719z M224.606,275.441c1.116,0,2.255-0.736,2.635-1.638c0.974-1.946-0.523-4.202-2.635-4.202h-5.84    c-1.092,0-2.23,0.713-2.611,1.639c-0.972,1.946,0.523,4.201,2.611,4.201H224.606z M247.94,275.441    c1.116,0,2.255-0.736,2.636-1.638c0.949-1.946-0.523-4.202-2.636-4.202h-5.84c-1.091,0-2.255,0.713-2.611,1.639    c-0.972,1.946,0.498,4.201,2.611,4.201H247.94z M271.274,275.441c1.092,0,2.255-0.736,2.611-1.638    c0.974-1.946-0.498-4.202-2.611-4.202h-5.839c-1.092,0-2.255,0.713-2.611,1.639c-0.973,1.946,0.498,4.201,2.611,4.201H271.274z     M294.609,275.441c1.092,0,2.255-0.736,2.611-1.638c0.974-1.946-0.498-4.202-2.611-4.202h-5.84c-1.091,0-2.255,0.713-2.61,1.639    c-0.973,1.946,0.498,4.201,2.61,4.201H294.609z M313.648,275.441c1.115,0,2.256-0.736,2.635-1.638    c0.974-1.946-0.521-4.202-2.635-4.202h-1.544c-1.116,0-2.255,0.713-2.634,1.639c-0.949,1.946,0.521,4.201,2.634,4.201H313.648z     M195.456,269.602c-1.116,0-2.255,0.713-2.636,1.639c-0.972,1.946,0.523,4.201,2.636,4.201h5.815c1.116,0,2.257-0.736,2.636-1.638    c0.974-1.946-0.523-4.202-2.636-4.202H195.456z M224.606,293.078c1.116,0,2.255-0.711,2.635-1.637    c0.974-1.947-0.523-4.202-2.635-4.202h-5.84c-1.092,0-2.23,0.712-2.611,1.638c-0.972,1.947,0.523,4.201,2.611,4.201H224.606z     M247.94,293.078c1.116,0,2.255-0.711,2.636-1.637c0.949-1.947-0.523-4.202-2.636-4.202h-5.84c-1.091,0-2.255,0.712-2.611,1.638    c-0.972,1.947,0.498,4.201,2.611,4.201H247.94z M271.274,293.078c1.092,0,2.255-0.711,2.611-1.637    c0.974-1.947-0.498-4.202-2.611-4.202h-5.839c-1.092,0-2.255,0.712-2.611,1.638c-0.973,1.947,0.498,4.201,2.611,4.201H271.274z     M294.609,293.078c1.092,0,2.255-0.711,2.611-1.637c0.974-1.947-0.498-4.202-2.611-4.202h-5.84c-1.091,0-2.255,0.712-2.61,1.638    c-0.973,1.947,0.498,4.201,2.61,4.201H294.609z M313.648,293.078c1.115,0,2.256-0.711,2.635-1.637    c0.974-1.947-0.521-4.202-2.635-4.202h-1.544c-1.116,0-2.255,0.712-2.634,1.638c-0.949,1.947,0.521,4.201,2.634,4.201H313.648z     M195.456,287.239c-1.116,0-2.255,0.712-2.636,1.638c-0.972,1.947,0.523,4.201,2.636,4.201h5.815c1.116,0,2.257-0.711,2.636-1.637    c0.974-1.947-0.523-4.202-2.636-4.202H195.456z M224.606,310.74c1.116,0,2.255-0.736,2.635-1.662    c0.974-1.946-0.523-4.178-2.635-4.178h-5.84c-1.092,0-2.23,0.712-2.611,1.639c-0.972,1.945,0.523,4.201,2.611,4.201H224.606z     M247.94,310.74c1.116,0,2.255-0.736,2.636-1.662c0.949-1.946-0.523-4.178-2.636-4.178h-5.84c-1.091,0-2.255,0.712-2.611,1.639    c-0.972,1.945,0.498,4.201,2.611,4.201H247.94z M271.274,310.74c1.092,0,2.255-0.736,2.611-1.662    c0.974-1.946-0.498-4.178-2.611-4.178h-5.839c-1.092,0-2.255,0.712-2.611,1.639c-0.973,1.945,0.498,4.201,2.611,4.201H271.274z     M294.609,310.74c1.092,0,2.255-0.736,2.611-1.662c0.974-1.946-0.498-4.178-2.611-4.178h-5.84c-1.091,0-2.255,0.712-2.61,1.639    c-0.973,1.945,0.498,4.201,2.61,4.201H294.609z M313.648,310.74c1.115,0,2.256-0.736,2.635-1.662    c0.974-1.946-0.521-4.178-2.635-4.178h-1.544c-1.116,0-2.255,0.712-2.634,1.639c-0.949,1.945,0.521,4.201,2.634,4.201H313.648z     M195.456,304.9c-1.116,0-2.255,0.712-2.636,1.639c-0.972,1.945,0.523,4.201,2.636,4.201h5.815c1.116,0,2.257-0.736,2.636-1.662    c0.974-1.946-0.523-4.178-2.636-4.178H195.456z M322.17,85.773c0,1.592-1.281,2.873-2.848,2.92h5.743v29.293H313.41v-1.828v-0.07    v-0.072V88.693h5.77c-1.592-0.047-2.85-1.328-2.85-2.92V47.697c0-1.566,1.258-2.872,2.85-2.92h-0.049    c-2.564-0.023-4.866-1.067-6.527-2.753c-1.709-1.686-2.754-4.036-2.754-6.646c0-2.587,1.045-4.938,2.754-6.646    c1.686-1.686,4.035-2.729,6.646-2.729c2.588,0,4.938,1.044,6.646,2.729c1.686,1.709,2.754,4.06,2.754,6.646    c0,2.61-1.068,4.961-2.754,6.646s-3.988,2.729-6.527,2.753h-0.047c1.566,0.048,2.848,1.354,2.848,2.92V85.773z M192.773,85.773    c0,1.592-1.258,2.873-2.824,2.92h5.744v29.293h-11.655V88.693h5.745c-1.567-0.047-2.825-1.328-2.825-2.92V47.697    c0-1.566,1.258-2.872,2.825-2.92h-0.047c-2.541-0.023-4.843-1.067-6.505-2.753c-1.709-1.686-2.753-4.036-2.753-6.646    c0-2.587,1.044-4.938,2.753-6.646c1.687-1.686,4.036-2.729,6.647-2.729c2.588,0,4.938,1.044,6.623,2.729    c1.709,1.709,2.753,4.06,2.753,6.646c0,2.61-1.044,4.961-2.753,6.646c-1.662,1.686-3.964,2.729-6.503,2.753h-0.048    c1.565,0.048,2.824,1.354,2.824,2.92V85.773z M123.625,474.438c-1.614,0-2.92-1.306-2.92-2.92c0-1.59,1.306-2.92,2.92-2.92H313.34    c1.614,0,2.92,1.33,2.92,2.92c0,1.614-1.306,2.92-2.92,2.92H123.625z M234.718,485.999c-1.614,0-2.92-1.33-2.92-2.92    c0-1.614,1.306-2.92,2.92-2.92h131.273c1.612,0,2.92,1.306,2.92,2.92c0,1.59-1.308,2.92-2.92,2.92H234.718z M379.426,485.999    c-1.614,0-2.92-1.33-2.92-2.92c0-1.614,1.306-2.92,2.92-2.92h16.428c1.59,0,2.92,1.306,2.92,2.92c0,1.59-1.33,2.92-2.92,2.92    H379.426z M116.146,485.643c-1.614,0-2.92-1.306-2.92-2.92s1.306-2.92,2.92-2.92h62.218c1.59,0,2.895,1.306,2.895,2.92    s-1.305,2.92-2.895,2.92H116.146z M205.379,223.859c2.564,0,4.889,1.044,6.598,2.729c1.686,1.709,2.73,4.035,2.73,6.599    c0,2.564-1.044,4.914-2.73,6.6c-1.709,1.709-4.034,2.754-6.598,2.754c-2.563,0-4.915-1.045-6.6-2.73    c-1.709-1.709-2.753-4.059-2.753-6.623c0-2.563,1.044-4.89,2.729-6.599C200.464,224.903,202.815,223.859,205.379,223.859z" style="fill-rule:evenodd;clip-rule:evenodd;"/></g></g><g id="Layer_1"/></svg>