<?xml version="1.0" ?><!DOCTYPE svg  PUBLIC '-//W3C//DTD SVG 1.1//EN'  'http://www.w3.org/Graphics/SVG/1.1/DTD/svg11.dtd'><svg height="512px" style="enable-background:new 0 0 512 512;" version="1.1" viewBox="0 0 512 512" width="512px" xml:space="preserve" xmlns="http://www.w3.org/2000/svg" xmlns:xlink="http://www.w3.org/1999/xlink"><g id="_x36_85_x2C__Business_x2C__eye_x2C__marketing_x2C__vision_x2C__Plan"><g><path d="M247.848,217.342l14.754,39.926c0.21,0.587,0.231,1.237,0,1.844    c-0.502,1.385-2.032,2.097-3.437,1.594l-39.632-14.65c-0.503,1.636-0.902,3.313-1.216,5.01c-0.44,2.515-0.691,5.135-0.691,7.839    c0,12.051,4.883,22.991,12.785,30.892c7.9,7.881,18.819,12.785,30.892,12.785c12.052,0,22.97-4.904,30.893-12.785    c7.88-7.9,12.785-18.841,12.785-30.892c0-12.052-4.905-22.971-12.807-30.872c-7.901-7.902-18.819-12.806-30.871-12.806    c-2.81,0-5.512,0.272-8.131,0.755C251.368,216.315,249.586,216.775,247.848,217.342 M219.428,217.531    c5.826-5.807,12.89-10.396,20.729-13.289c1.383-0.523,2.934,0.211,3.436,1.594l2.39,6.477c2.013-0.671,4.087-1.195,6.203-1.593    c2.976-0.565,6.015-0.86,9.118-0.86c13.54,0,25.8,5.492,34.665,14.378c8.886,8.866,14.378,21.126,14.378,34.666    c0,13.518-5.492,25.758-14.336,34.623l-0.042,0.042c-8.886,8.886-21.146,14.377-34.665,14.377s-25.758-5.491-34.623-14.335    l-0.042-0.021c-8.886-8.887-14.378-21.148-14.378-34.687c0-2.956,0.274-5.89,0.797-8.782c0.356-2.012,0.86-4.003,1.446-5.91    l-6.77-2.515c-1.383-0.504-2.095-2.054-1.591-3.438c2.892-7.839,7.461-14.88,13.245-20.687L219.428,217.531z M239.526,210.258    c-6.119,2.641-11.653,6.414-16.305,11.045l-0.063,0.064c-4.611,4.631-8.382,10.143-11.002,16.264l6.623,2.431l0.063,0.042    l0.062,0.021l36.657,13.54l-13.622-36.909l-0.042-0.062l-0.021-0.064L239.526,210.258z M304.582,209.588    c-11.884-11.885-28.294-19.24-46.424-19.24c-18.128,0-34.539,7.355-46.422,19.24c-11.885,11.883-19.241,28.293-19.241,46.423    c0,18.129,7.356,34.54,19.241,46.423c11.883,11.863,28.294,19.219,46.422,19.219c18.13,0,34.54-7.355,46.424-19.219    c11.883-11.883,19.22-28.294,19.22-46.423C323.802,237.881,316.465,221.471,304.582,209.588z M258.158,185.191    c19.555,0,37.244,7.943,50.07,20.749c12.807,12.806,20.729,30.517,20.729,50.07c0,19.532-7.922,37.243-20.729,50.069    c-12.826,12.806-30.516,20.729-50.07,20.729c-19.553,0-37.264-7.923-50.07-20.729c-12.805-12.826-20.748-30.516-20.748-50.069    s7.943-37.265,20.748-50.07C220.895,193.135,238.605,185.191,258.158,185.191z M202.912,311.236c1.007,1.006,1.007,2.641,0,3.646    c-0.984,1.006-2.641,1.006-3.625,0c-16.263-16.264-24.396-37.578-24.396-58.872c0-21.315,8.133-42.63,24.396-58.894    c0.984-0.984,2.641-0.984,3.625,0c1.007,1.006,1.007,2.641,0,3.646c-15.236,15.258-22.864,35.252-22.864,55.247    C180.047,276.005,187.675,295.979,202.912,311.236z M313.384,200.764c-1.005-1.006-1.005-2.641,0-3.646    c1.007-0.984,2.642-0.984,3.648,0c16.263,16.264,24.395,37.578,24.395,58.894c0,21.294-8.132,42.608-24.395,58.872    c-1.007,1.006-2.642,1.006-3.648,0c-1.005-1.006-1.005-2.641,0-3.646c15.259-15.258,22.888-35.231,22.888-55.226    C336.271,236.016,328.643,216.021,313.384,200.764z M140.603,193.407c1.572-2.62-2.327-5.407-4.506-2.493    c-0.839,1.529-1.634,3.164-2.43,4.757c-1.425,3.563,3.541,4.968,4.652,2.243L140.603,193.407z M151.438,176.369    c1.992-2.662-2.137-5.744-4.129-3.082c-1.048,1.404-2.074,2.83-3.082,4.275c-1.781,2.997,2.243,5.596,4.255,2.914    C149.446,179.093,150.433,177.71,151.438,176.369z M164.706,161.152c2.43-2.432-1.258-6.035-3.627-3.668    c-1.235,1.258-2.452,2.494-3.667,3.752c-2.243,2.264,1.216,6.078,3.772,3.542C162.337,163.541,163.511,162.348,164.706,161.152z     M180.109,148.116c2.809-2.097-0.398-6.141-3.018-4.171c-1.425,1.006-2.808,2.074-4.19,3.164c-2.662,1.992,0.438,6.1,3.185,4.046    C177.407,150.107,178.747,149.102,180.109,148.116z M197.316,137.532c2.873-1.719,0.944-5.89-2.367-4.569    c-1.551,0.775-3.103,1.635-4.611,2.494c-3.061,1.824-0.23,6.141,2.536,4.465C194.319,139.104,195.807,138.287,197.316,137.532z     M215.927,129.693c3.458-1.383,1.174-6.015-1.655-4.883c-1.656,0.566-3.311,1.152-4.947,1.76c-3.248,1.3-1.216,6.037,1.823,4.821    C212.742,130.783,214.314,130.218,215.927,129.693z M235.503,124.769c3.479-0.691,2.285-5.7-0.902-5.072    c-1.718,0.294-3.436,0.629-5.134,0.985c-3.164,0.629-2.451,5.638,1.048,5.051C232.17,125.377,233.825,125.063,235.503,124.769z     M255.602,122.882c3.269,0,3.396-5.155-0.126-5.155c-1.739,0.021-3.478,0.104-5.219,0.209c-3.038,0-3.478,5.135,0.273,5.135    C252.206,122.967,253.926,122.902,255.602,122.882z M275.764,124.014c0.271,0.043,0.649,0,0.901-0.063    c2.515-0.504,2.871-4.422-0.252-5.051l-5.219-0.587c-3.396,0-3.919,4.442-0.46,5.134    C272.41,123.594,274.088,123.783,275.764,124.014z M295.506,128.164c3.354,0.67,4.696-3.647,1.425-4.947    c-1.676-0.481-3.372-0.963-5.07-1.383c-3.584-0.712-4.275,4.401-1.217,5.01C292.195,127.325,293.915,127.723,295.506,128.164z     M314.412,135.29c3.457,1.382,4.987-3.542,2.158-4.674l-4.799-2.138c-3.25-1.3-5.031,3.541-1.992,4.758L314.412,135.29z     M331.996,145.182c3.164,1.908,5.512-2.683,2.85-4.296c-1.467-0.964-2.934-1.907-4.422-2.809c-2.955-1.782-5.532,2.662-2.683,4.38    L331.996,145.182z M347.903,157.631c0.313,0.336,1.026,0.671,1.572,0.671c2.515,0,3.604-2.745,1.865-4.484l-3.92-3.458    c-2.222-2.201-5.89,1.383-3.333,3.939L347.903,157.631z M361.736,172.322c0.482,0.65,1.529,1.111,2.409,0.923    c1.991-0.397,2.81-2.536,1.593-4.171l-3.374-4.003c-2.704-2.703-5.974,1.278-3.876,3.396L361.736,172.322z M373.199,188.943    c1.781,2.955,6.163,0.252,4.443-2.62c-0.879-1.509-1.781-2.976-2.723-4.464c-1.301-2.158-4.738-1.132-4.738,1.236    c0,0.691,0.105,1.049,0.398,1.529C371.482,186.051,372.361,187.497,373.199,188.943z M382.024,207.094    c1.277,3.164,6.056,1.236,4.8-1.908c-0.651-1.613-1.322-3.227-2.014-4.82c-1.194-2.976-6.015-1.131-4.736,2.033    C380.703,203.971,381.416,205.521,382.024,207.094z M383.826,300.129c-0.504,1.236,0.293,2.745,1.362,3.186    c1.572,0.628,2.934-0.105,3.501-1.51l1.633-4.967c0.986-2.451-2.892-5.03-4.757-1.928    C384.916,296.502,384.412,298.451,383.826,300.129z M375.695,318.593c-1.572,2.62,2.388,5.365,4.443,2.642    c0.879-1.531,1.696-3.291,2.493-4.885c1.425-3.584-3.543-4.987-4.633-2.264L375.695,318.593z M364.879,335.633    c-1.99,2.66,2.139,5.742,4.129,3.08c1.049-1.383,2.055-2.83,3.061-4.254c1.802-2.998-2.222-5.617-4.254-2.914    C366.85,332.928,365.886,334.291,364.879,335.633z M351.613,350.848c-2.431,2.432,1.236,6.037,3.604,3.668    c1.237-1.236,2.475-2.473,3.67-3.751c2.262-2.264-1.217-6.079-3.752-3.522C353.982,348.479,352.787,349.654,351.613,350.848z     M336.188,363.884c-2.787,2.117,0.397,6.141,3.018,4.192c1.425-1.027,2.83-2.096,4.213-3.165c1.068-0.817,1.299-2.516,0.462-3.563    c-0.881-1.194-2.495-1.362-3.648-0.482C338.891,361.893,337.571,362.92,336.188,363.884z M319.001,374.469    c-2.871,1.718-0.942,5.91,2.348,4.59c1.552-0.776,3.124-1.635,4.633-2.495c3.039-1.845,0.229-6.141-2.538-4.485    C321.977,372.896,320.488,373.734,319.001,374.469z M300.39,382.327c-3.478,1.384-1.195,5.994,1.656,4.862    c1.655-0.545,3.29-1.131,4.926-1.76c3.27-1.3,1.215-6.016-1.825-4.799C303.576,381.217,301.983,381.782,300.39,382.327z     M280.815,387.231c-3.479,0.692-2.306,5.701,0.879,5.072c1.741-0.293,3.438-0.608,5.155-0.985    c3.166-0.628,2.453-5.617-1.068-5.029C284.127,386.623,282.47,386.938,280.815,387.231z M260.715,389.118    c-2.242,0-3.373,2.787-1.739,4.422c0.314,0.44,1.195,0.733,1.845,0.733c1.74-0.02,3.501-0.104,5.239-0.188    c3.039,0,3.459-5.156-0.293-5.156C264.089,389.035,262.393,389.097,260.715,389.118z M240.553,388.008    c-0.293-0.064-0.649,0-0.921,0.041c-2.515,0.504-2.85,4.443,0.251,5.052l5.218,0.587c3.417,0,3.92-4.423,0.462-5.114    C243.887,388.405,242.23,388.217,240.553,388.008z M220.789,383.836c-3.332-0.67-4.673,3.647-1.425,4.947    c1.678,0.481,3.375,0.984,5.073,1.383c3.583,0.713,4.274-4.381,1.214-5.01C224.102,384.695,222.382,384.298,220.789,383.836z     M201.906,376.731c-3.458-1.383-5.01,3.542-2.158,4.673l4.778,2.117c3.248,1.3,5.05-3.521,1.991-4.736L201.906,376.731z     M184.322,366.818c-3.164-1.887-5.511,2.703-2.85,4.297c1.446,0.963,2.913,1.906,4.401,2.828c2.976,1.782,5.554-2.682,2.704-4.4    L184.322,366.818z M168.415,354.369c-0.335-0.336-1.049-0.65-1.572-0.65c-2.536,0-3.625,2.725-1.886,4.465l3.939,3.457    c2.2,2.223,5.87-1.361,3.332-3.918L168.415,354.369z M154.562,339.677c-0.482-0.649-1.509-1.089-2.411-0.922    c-1.969,0.398-2.808,2.536-1.572,4.171l3.375,4.023c2.704,2.705,5.973-1.299,3.878-3.395L154.562,339.677z M143.096,323.057    c-1.76-2.955-6.161-0.252-4.443,2.62c0.902,1.509,1.804,2.997,2.725,4.464c1.3,2.158,4.757,1.153,4.757-1.236    c0-0.691-0.104-1.027-0.398-1.529C144.815,325.949,143.956,324.523,143.096,323.057z M134.273,304.906    c-1.258-3.143-6.036-1.236-4.778,1.908c0.628,1.635,1.32,3.228,2.013,4.841c1.193,2.976,6.035,1.236,4.715-2.075    C135.531,308.029,134.901,306.479,134.273,304.906z M105.56,208.645c-1.005,0.985-2.641,0.965-3.625-0.042    c-0.986-1.007-0.986-2.642,0.042-3.626l11.904-11.674H28.558c-1.404,0-2.557-1.174-2.557-2.578c0-1.426,1.153-2.577,2.557-2.577    h85.323l-11.904-11.675c-1.028-1.006-1.028-2.641-0.042-3.646c0.984-1.006,2.62-1.006,3.625-0.021l16.284,15.948    c0.545,0.482,0.902,1.174,0.902,1.971c0,0.775-0.356,1.488-0.902,1.949L105.56,208.645z M410.025,346.384    c1.005,1.007,1.005,2.641,0.021,3.646c-0.986,1.006-2.62,1.027-3.627,0.021l-16.284-15.949c-0.545-0.482-0.902-1.174-0.902-1.97    c0-0.774,0.357-1.468,0.902-1.948l16.284-15.95c1.007-1.006,2.641-0.985,3.627,0.021c0.984,1.007,0.984,2.641-0.021,3.627    l-11.906,11.673h85.302c1.403,0,2.578,1.174,2.578,2.578c0,1.425-1.175,2.578-2.578,2.578h-85.302L410.025,346.384z     M350.544,315.219c29.048-13.854,55.435-34.078,77.944-59.208c-22.51-25.15-48.896-45.354-77.944-59.229    c-28.567-13.644-59.753-21.125-92.386-21.125c-32.652,0-63.818,7.481-92.384,21.125c-12.366,5.891-24.228,12.932-35.525,21.021    c0.229-0.23,0.419-0.523,0.565-0.9c0.609-1.614,1.09-3.375,1.677-5.01c0.504-1.258-0.314-2.767-1.361-3.186    c-1.572-0.629-2.957,0.105-3.522,1.488l-1.635,4.967c-0.9,2.285,1.844,3.962,3.669,3.081    c-15.049,10.835-29.071,23.495-41.833,37.768c22.508,25.13,48.896,45.354,77.965,59.208    c28.565,13.644,59.731,21.146,92.384,21.146C290.791,336.365,321.977,328.862,350.544,315.219z" style="fill-rule:evenodd;clip-rule:evenodd;"/></g></g><g id="Layer_1"/></svg>